<svg id="Réteg_1" data-name="Réteg 1" xmlns="http://www.w3.org/2000/svg" viewBox="0 0 16 15.25"><defs><style>.checkmark-1{fill:#1f3b21;}</style></defs><path id="Path_258" data-name="Path 258" class="checkmark-1" d="M775.75,1016.38a1.09,1.09,0,0,0-1.52-.13h0l-.75.64c-.25.2-.49.43-.73.64-.5.43-1,.88-1.44,1.33s-.93.9-1.38,1.37l-1.35,1.39c-.88,1-1.75,1.9-2.6,2.87-.4.46-.8.91-1.18,1.37l-.54-.3-1.28-.76-.61-.37-.3-.19-.31-.21,0,0a1.11,1.11,0,0,0-1.54.3,1.12,1.12,0,0,0,0,1.22l.21.32.23.33c.15.22.31.45.46.65l.92,1.25.93,1.22.94,1.22.1.12a1.74,1.74,0,0,0,2.46.19l.09-.08q1.43-1.87,2.66-3.87c.66-1.06,1.34-2.11,2-3.14.35-.52.7-1,1.06-1.54l1.1-1.51c.37-.5.75-1,1.15-1.46.2-.24.38-.49.59-.72l.6-.7,0,0A1.08,1.08,0,0,0,775.75,1016.38Z" transform="translate(-760 -1016)"/></svg>