<svg id="Réteg_1" data-name="Réteg 1" xmlns="http://www.w3.org/2000/svg" viewBox="0 0 22.48 22.48">
  <defs>
    <style>
      .facebook{fill:#2f343c;}
    </style>
    </defs>
    <path id="Subtraction_1" data-name="Subtraction 1" class="facebook" d="M769,1035.48H758.41a1.41,1.41,0,0,1-1.41-1.4V1014.4a1.41,1.41,0,0,1,1.41-1.4h19.67a1.4,1.4,0,0,1,1.4,1.4v19.68a1.4,1.4,0,0,1-1.4,1.4h-5.62v-8.43h2.81l.7-3.51h-3.51v-1.4a1.87,1.87,0,0,1,1.59-2.11,2.26,2.26,0,0,1,.52,0H776v-3.51h-2.81a3.89,3.89,0,0,0-3.08,1.37,5.45,5.45,0,0,0-1.14,3.54v2.11h-2.81v3.51H769Z" transform="translate(-757 -1013)"/>
  </svg>