<svg id="Réteg_1" data-name="Réteg 1" xmlns="http://www.w3.org/2000/svg" viewBox="0 0 14 14.3">
  <defs>
    <style>
      .cls-1{opacity:0.73;}
      .cls-2{fill:#959faa;}
    </style>
  </defs>
  <g id="Group_378" data-name="Group 378" class="cls-1">
    <path id="path3766-1" class="cls-2" d="M768,1017a.67.67,0,0,1,.48.2l6.31,6.31a.68.68,0,0,1,0,1l-1.89,1.9v4.23a.69.69,0,0,1-.69.69H770a.69.69,0,0,1-.69-.69h0v-5h-2.58v5a.69.69,0,0,1-.69.69h-2.24a.69.69,0,0,1-.69-.69h0v-4.23l-1.89-1.9a.68.68,0,0,1,0-1l6.31-6.31A.7.7,0,0,1,768,1017Z" transform="translate(-761 -1017)"/>
  </g>
</svg>