<svg id="Réteg_1" data-name="Réteg 1" xmlns="http://www.w3.org/2000/svg" viewBox="0 0 22.49 22.5">
  <defs>
    <style>
      .instagram{fill:#2f343c;}
    </style>
  </defs>
  <g id="iconfinder_38-instagram_1161953" data-name="iconfinder 38-instagram 1161953">
    <path id="Path_248" data-name="Path 248" class="instagram" d="M768.24,1018.39a5.8,5.8,0,1,0,5.8,5.8h0A5.82,5.82,0,0,0,768.24,1018.39Zm0,9.52a3.72,3.72,0,1,1,3.72-3.72A3.72,3.72,0,0,1,768.24,1027.91Z" transform="translate(-756.99 -1012.99)"/>
    <circle id="Ellipse_283" data-name="Ellipse 283" class="instagram" cx="17.28" cy="5.27" r="1.31"/>
    <path id="Path_249" data-name="Path 249" class="instagram" d="M777.67,1014.86a6.46,6.46,0,0,0-4.76-1.86h-9.34a6.21,6.21,0,0,0-6.57,5.83c0,.24,0,.49,0,.74v9.29a6.51,6.51,0,0,0,1.9,4.85,6.59,6.59,0,0,0,4.71,1.77h9.25a6.64,6.64,0,0,0,4.76-1.77,6.49,6.49,0,0,0,1.86-4.8v-9.34A6.53,6.53,0,0,0,777.67,1014.86Zm-.18,14.05a4.42,4.42,0,0,1-1.32,3.31,4.66,4.66,0,0,1-3.31,1.18h-9.24a4.67,4.67,0,0,1-3.31-1.18,4.57,4.57,0,0,1-1.23-3.35v-9.3a4.15,4.15,0,0,1,4.54-4.48H773a4.49,4.49,0,0,1,3.31,1.22,4.64,4.64,0,0,1,1.23,3.26Z" transform="translate(-756.99 -1012.99)"/>
  </g>
</svg>