<svg id="Réteg_1" data-name="Réteg 1" xmlns="http://www.w3.org/2000/svg" viewBox="0 0 22.48 22.48">
  <defs>
    <style>
      .linkedin{fill:#2f343c;}
    </style>
  </defs>
  <g id="iconfinder_square-linkedin_317725" data-name="iconfinder square-linkedin 317725">
    <path id="Subtraction_2" data-name="Subtraction 2" class="linkedin" d="M778.08,1035.48H758.4a1.4,1.4,0,0,1-1.4-1.4V1014.4a1.4,1.4,0,0,1,1.4-1.4h19.68a1.4,1.4,0,0,1,1.4,1.4v19.68A1.4,1.4,0,0,1,778.08,1035.48Zm-7.73-11.94a1.27,1.27,0,0,1,1.4,1.11.76.76,0,0,1,0,.3v5.62h2.81v-4.92a8.28,8.28,0,0,0-.53-3.52,2.64,2.64,0,0,0-2.63-1.4c-2,0-2.3.72-2.46,1.41v-1.41h-2.8v9.84h2.8V1025a1.27,1.27,0,0,1,1.12-1.41Zm-8.43-2.81v9.84h2.81v-9.84Zm1.4-3.51a1.41,1.41,0,1,0,1.41,1.4A1.4,1.4,0,0,0,763.32,1017.22Z" transform="translate(-757 -1013)"/>
  </g>
</svg>