<svg xmlns="http://www.w3.org/2000/svg" width="160" height="100" viewBox="0 0 160 100"><defs><style>.a{fill:#f6f6f6;}.a,.b,.c{fill-rule:evenodd;}.b{fill:#306fc5;}.c{fill:#265697;}</style></defs><g transform="translate(-1)"><path class="a" d="M149,0H9C5,0,1,4,1,8V88q0,12,12,12H149q12,0,12-12V12Q161,0,149,0Zm0,0"/><path class="b" d="M152.765,33.457h-4.209a2.412,2.412,0,0,0-2.21,1.629c-.011.037-.03.072-.039.111l-.274,1.214-5.77,25.463c-.133.576-.223.951-.249,1.048l.011.014a1.351,1.351,0,0,0,1.252,1.709l.012.017h4.36a2.421,2.421,0,0,0,2.206-1.611c.013-.044.035-.085.045-.128L154.193,35.2l-.009,0A1.374,1.374,0,0,0,152.765,33.457ZM131.22,58.483a12.4,12.4,0,0,1-1.843.924,6.755,6.755,0,0,1-2.449.519,5.557,5.557,0,0,1-2.67-.5,1.752,1.752,0,0,1-.915-1.7,3.409,3.409,0,0,1,.681-2.232,4.877,4.877,0,0,1,2-1.318,17.735,17.735,0,0,1,3.094-.676c1.07-.131,3.187-.369,3.458-.37s.451-.148.33.555c-.054.305-.665,2.748-.945,3.858a2.186,2.186,0,0,1-.744.948Zm8.306-17.167c-1.782-.968-4.571-1.458-8.386-1.458a38.023,38.023,0,0,0-5.685.435c-1.4.208-1.54.243-2.408.427a2.693,2.693,0,0,0-2.06,2.118l-.573,2.295c-.325,1.468.534,1.407.916,1.294a24.816,24.816,0,0,1,2.791-.807,21.113,21.113,0,0,1,4.406-.577,11.916,11.916,0,0,1,4.257.586,2.1,2.1,0,0,1,1.421,2.074,1.519,1.519,0,0,1-.077.647c-.078.18-.228.354-.677.413-2.682.155-4.606.394-6.924.722a22.123,22.123,0,0,0-5.961,1.595,9.247,9.247,0,0,0-4.037,3.107,8.279,8.279,0,0,0-1.347,4.772,5.539,5.539,0,0,0,1.916,4.331,7.318,7.318,0,0,0,4.952,1.652A13.52,13.52,0,0,0,125,64.673a15.092,15.092,0,0,0,2.262-.754,11.843,11.843,0,0,0,1.933-1.041c.685-.445,1.16-.761,1.768-1.149l.022.037-.171.736c0,.007-.011.011-.011.018l.006.014a1.358,1.358,0,0,0,1.253,1.71l.011.015h.08l0,0c.6,0,2.652,0,3.612,0h.67a.089.089,0,0,0,.066-.023,2.423,2.423,0,0,0,2.011-1.716l3.428-14.407a8.163,8.163,0,0,0,.178-1.181,8.984,8.984,0,0,0,.078-1.1,4.8,4.8,0,0,0-2.67-4.515Zm-20.644-3.282a7.062,7.062,0,0,0-2.585-2.7,11.849,11.849,0,0,0-4.082-1.459,33.652,33.652,0,0,0-5.522-.423l-9.822,0A2.432,2.432,0,0,0,94.634,35.2l-6.6,27.978a1.362,1.362,0,0,0,1.409,1.738l4.713-.008a2.424,2.424,0,0,0,2.254-1.729L98,56.392a2.4,2.4,0,0,1,2.255-1.735h1.34q8.623,0,13.4-3.439a10.689,10.689,0,0,0,4.786-9.071A8.648,8.648,0,0,0,118.881,38.034Zm-10.133,9.151a10.127,10.127,0,0,1-5.921,1.5h-1.168a1.361,1.361,0,0,1-1.423-1.738L101.644,41a2.392,2.392,0,0,1,2.232-1.731l1.543-.008a7.786,7.786,0,0,1,4.08.885,3.034,3.034,0,0,1,1.366,2.725,4.983,4.983,0,0,1-2.116,4.309"/><path class="c" d="M85.836,39.858a3.586,3.586,0,0,0-2.623,1.566s-5.982,10.046-6.57,11.05c-.319.54-.643.2-.7,0-.044-.244-1.854-10.98-1.854-10.98a2.286,2.286,0,0,0-2.278-1.6l-3.73.006a1.223,1.223,0,0,0-1.26,1.558S69.675,57.281,70.231,61c.277,2.059-.029,2.424-.029,2.424l-3.7,6.313c-.541.856-.245,1.557.65,1.557l4.323,0a3.514,3.514,0,0,0,2.613-1.555l16.63-27.55s1.591-2.354.124-2.334C89.845,39.871,85.836,39.858,85.836,39.858ZM54.614,58.483a12.457,12.457,0,0,1-1.842.923,6.806,6.806,0,0,1-2.45.519,5.587,5.587,0,0,1-2.67-.5,1.757,1.757,0,0,1-.916-1.7,3.415,3.415,0,0,1,.683-2.231,4.859,4.859,0,0,1,2-1.319,17.756,17.756,0,0,1,3.1-.674c1.07-.131,3.189-.368,3.459-.372s.449-.148.328.555c-.052.305-.664,2.749-.944,3.859a2.221,2.221,0,0,1-.744.948ZM62.92,41.315c-1.782-.968-4.57-1.457-8.385-1.457a37.93,37.93,0,0,0-5.686.434c-1.4.207-1.539.242-2.408.426a2.693,2.693,0,0,0-2.06,2.118l-.573,2.3c-.324,1.467.535,1.407.916,1.293a25.035,25.035,0,0,1,2.792-.808,21.3,21.3,0,0,1,4.4-.576,11.913,11.913,0,0,1,4.257.586A2.1,2.1,0,0,1,57.6,47.7a1.5,1.5,0,0,1-.073.646c-.08.181-.231.354-.68.413-2.678.158-4.6.4-6.924.724a22.16,22.16,0,0,0-5.961,1.594,9.235,9.235,0,0,0-4.034,3.107,8.247,8.247,0,0,0-1.349,4.772,5.542,5.542,0,0,0,1.915,4.33,7.317,7.317,0,0,0,4.951,1.653,13.653,13.653,0,0,0,2.948-.268,15.148,15.148,0,0,0,2.259-.754,11.856,11.856,0,0,0,1.935-1.042c.684-.444,1.16-.76,1.771-1.148l.019.036L54.2,62.5c0,.007-.011.012-.011.02l.007.012a1.356,1.356,0,0,0,1.252,1.71l.011.017h.079l0,.005,3.612-.005h.671a.082.082,0,0,0,.066-.024A2.433,2.433,0,0,0,61.9,62.519l3.428-14.409a8.066,8.066,0,0,0,.175-1.179,8.849,8.849,0,0,0,.082-1.1A4.8,4.8,0,0,0,62.92,41.315ZM41.476,38.034a7.062,7.062,0,0,0-2.585-2.7,11.849,11.849,0,0,0-4.082-1.459,33.652,33.652,0,0,0-5.522-.423l-9.822,0A2.432,2.432,0,0,0,17.228,35.2l-6.6,27.978a1.362,1.362,0,0,0,1.409,1.738l4.713-.008A2.424,2.424,0,0,0,19,63.182l1.593-6.79a2.4,2.4,0,0,1,2.255-1.735h1.34q8.623,0,13.4-3.439a10.689,10.689,0,0,0,4.786-9.071A8.648,8.648,0,0,0,41.476,38.034ZM31.343,47.185a10.127,10.127,0,0,1-5.921,1.5H24.253a1.361,1.361,0,0,1-1.423-1.738L24.238,41a2.392,2.392,0,0,1,2.232-1.731l1.543-.008a7.786,7.786,0,0,1,4.08.885,3.034,3.034,0,0,1,1.366,2.725,4.983,4.983,0,0,1-2.116,4.309"/></g></svg>