<svg id="Réteg_1" data-name="Réteg 1" xmlns="http://www.w3.org/2000/svg" viewBox="0 0 14 14"><defs><style>.plus-1{fill:#2f343c;}</style></defs><g id="Group_541" data-name="Group 541"><path id="Rectangle_807" data-name="Rectangle 807" class="plus-1" d="M763,1022h10a2,2,0,0,1,2,2h0a2,2,0,0,1-2,2H763a2,2,0,0,1-2-2h0A2,2,0,0,1,763,1022Z" transform="translate(-761 -1017)"/><path id="Rectangle_808" data-name="Rectangle 808" class="cls-1" d="M770,1019v10a2,2,0,0,1-2,2h0a2,2,0,0,1-2-2v-10a2,2,0,0,1,2-2h0A2,2,0,0,1,770,1019Z" transform="translate(-761 -1017)"/></g></svg>