<svg xmlns="http://www.w3.org/2000/svg" width="32" height="24" viewBox="0 0 32 24"><defs><style>.a{fill:#303c42;}</style></defs><g transform="translate(0 -3)"><path class="a" d="M8.7,11.229h0c-.468,0-.855.522-1.154,1.339-.4,1.094-.25,1.365.177,1.365h0c.439,0,.73-.277,1.132-1.376h0C9.25,11.487,9.148,11.229,8.7,11.229Z" transform="translate(2.438 2.743)"/><path class="a" d="M17.329,11.211H17.09l-.42,1.133h.248a.836.836,0,0,0,.864-.606C17.93,11.339,17.766,11.212,17.329,11.211Z" transform="translate(5.556 2.737)"/><path class="a" d="M14.529,11.229h0c-.468,0-.855.522-1.153,1.339-.4,1.094-.251,1.365.177,1.365h0c.438,0,.73-.277,1.132-1.376C15.076,11.487,14.974,11.229,14.529,11.229Z" transform="translate(4.38 2.743)"/><path class="a" d="M29.333,3H2.667A2.67,2.67,0,0,0,0,5.667V24.333A2.67,2.67,0,0,0,2.667,27H29.333A2.67,2.67,0,0,0,32,24.333V5.667A2.67,2.67,0,0,0,29.333,3ZM8.056,16A1.961,1.961,0,0,1,6.9,17.456a3.223,3.223,0,0,1-1.277.208H2.661l.437-1.2H5.864a1.364,1.364,0,0,0,.466-.055.306.306,0,0,0,.186-.207.317.317,0,0,0,.019-.112.223.223,0,0,0-.024-.1.252.252,0,0,0-.1-.1.549.549,0,0,0-.125-.053l-.272-.08-.177-.051a1.289,1.289,0,0,1-.4-.2.907.907,0,0,1-.262-.3.629.629,0,0,1-.063-.313,1.486,1.486,0,0,1,.087-.42,2.069,2.069,0,0,1,.945-1.311,2.6,2.6,0,0,1,1.2-.187h2.687a3.8,3.8,0,0,0-1.111,1.058c-.012.017-.023.037-.035.054H7.168a.621.621,0,0,0-.3.067.308.308,0,0,0-.153.184.261.261,0,0,0,.027.21.313.313,0,0,0,.184.132l.233.067.158.045a1.094,1.094,0,0,1,.668.438A.989.989,0,0,1,8.056,16Zm1.777,1.741h0a1.385,1.385,0,0,1-1.222-.525,2.028,2.028,0,0,1-.01-1.853,4.763,4.763,0,0,1,.577-1.116,3.288,3.288,0,0,1,1.256-1.1,2.455,2.455,0,0,1,1.051-.24h0a1.358,1.358,0,0,1,1.193.506,2.108,2.108,0,0,1,.015,1.817C12.081,16.9,11.12,17.742,9.833,17.742Zm5.7-1.914H14.269L13.6,17.664H12.176l1.3-3.574a1.611,1.611,0,0,1,1.6-1.112H17.82a4.005,4.005,0,0,0-1.176,1.058c-.012.017-.023.037-.035.054H15.124a.3.3,0,0,0-.29.183l-.2.57h1.255ZM17.6,17.742h0a1.383,1.383,0,0,1-1.222-.525,2.026,2.026,0,0,1-.01-1.853,4.751,4.751,0,0,1,.577-1.116,3.286,3.286,0,0,1,1.256-1.1,2.454,2.454,0,0,1,1.051-.24,1.359,1.359,0,0,1,1.193.506,2.107,2.107,0,0,1,.014,1.817C19.85,16.9,18.889,17.742,17.6,17.742Zm5.712-2.076a2.581,2.581,0,0,1,.18.369,14.6,14.6,0,0,1,.481,1.632H22.451s-.366-1.582-.4-1.65l-.62,1.65H19.985l1.706-4.686h1.578a1.53,1.53,0,0,1,1.33.46,1.087,1.087,0,0,1,.027,1.027A2.136,2.136,0,0,1,23.313,15.666Zm5.615-1.573h-1.67l-1.3,3.575h-1.3l1.3-3.575H25.1a1.218,1.218,0,0,0-.195-.863,1.173,1.173,0,0,0-.237-.25h4.669Z"/></g></svg>