<svg id="Réteg_1" data-name="Réteg 1" xmlns="http://www.w3.org/2000/svg" viewBox="0 0 17.97 16.34"><defs><style>.waring-1{fill:#624e2d;}</style></defs><path id="Path_261" data-name="Path 261" class="waring-1" d="M777.59,1028.07l-6.15-10.64a2.82,2.82,0,0,0-4.91,0l-6.15,10.64a2.85,2.85,0,0,0,1.06,3.89,2.74,2.74,0,0,0,1.39.38h12.28a2.87,2.87,0,0,0,2.86-2.86A2.79,2.79,0,0,0,777.59,1028.07Zm-8.6-8.17c.8,0,1.17.76,1.17,2a19.3,19.3,0,0,1-.66,3.69.55.55,0,0,1-1.07,0,19.3,19.3,0,0,1-.66-3.69C767.77,1020.66,768.19,1019.9,769,1019.9Zm0,9.9a1.27,1.27,0,1,1,1.28-1.26,1.28,1.28,0,0,1-1.28,1.26Z" transform="translate(-760 -1016)"/></svg>